<svg viewBox="0 0 200 200" width="200" height="200" xmlns="http://www.w3.org/2000/svg" role="img" aria-label="Yabadaba Dough">
  <g transform="rotate(35 100 100)">
    <path d="M108.93 48.39Q126.23 49.71 137.51 57.51Q148.79 65.31 148.79 79.98L148.79 79.98L114.01 79.98Q113.82 74.71 109.78 72.55Q105.73 70.39 100.66 70.39L100.66 70.39Q87.12 70.39 87.12 76.78L87.12 76.78Q87.12 80.35 91.82 81.86Q96.52 83.36 107.24 85.05L107.24 85.05Q120.40 86.93 129.23 89.47Q138.07 92.01 144.65 98.50Q151.23 104.98 151.23 116.64L151.23 116.64Q151.23 133.75 139.67 142.02Q128.11 150.29 108.93 151.61L108.93 151.61L110.43 177.36L89.19 177.36L90.51 151.42Q72.46 149.54 60.61 140.98Q48.77 132.43 48.77 117.20L48.77 117.20L83.55 117.20L83.55 117.95Q83.74 124.35 88.91 126.88Q94.08 129.42 99.91 129.42L99.91 129.42Q115.51 129.42 115.51 122.09L115.51 122.09Q115.51 118.33 110.62 116.64Q105.73 114.95 94.64 113.07L94.64 113.07Q81.29 110.81 72.74 108.18Q64.19 105.55 57.79 99.25Q51.40 92.95 51.40 81.67L51.40 81.67Q51.40 65.88 62.02 57.98Q72.65 50.09 90.51 48.58L90.51 48.58L89.19 22.64L110.43 22.64L108.93 48.39Z" fill="#6b5f4c" stroke="#e08a3c" stroke-width="3"></path>
  </g>
  <path d="M74.61 133L60.81 133L60.81 107.61L36.34 69.89L52.25 69.89L67.89 95.28L68.35 95.28L83.90 69.89L98.90 69.89L74.61 107.61L74.61 133ZM132.57 133L106.81 133L106.81 69.89L132.57 69.89Q142.41 69.89 149.31 73.29Q156.21 76.70 159.94 83.64Q163.66 90.59 163.66 101.44L163.66 101.44Q163.66 112.21 159.94 119.20Q156.21 126.19 149.31 129.60Q142.41 133 132.57 133L132.57 133ZM120.52 81.11L120.52 121.68L132.48 121.68Q136.62 121.68 139.84 120.49Q143.06 119.29 145.17 116.95Q147.29 114.60 148.39 111.06Q149.50 107.52 149.50 102.82L149.50 102.82L149.50 100.06Q149.50 95.37 148.39 91.83Q147.29 88.29 145.17 85.94Q143.06 83.60 139.84 82.35Q136.62 81.11 132.48 81.11L132.48 81.11L120.52 81.11Z" fill="#f4ede0"></path>
</svg>